# Blender v2.79 (sub 0) OBJ File: 'ghost.blend'
# www.blender.org
mtllib angryEyes.mtl
o BezierCircle.006_BezierCircle.007
v -0.529044 2.098164 1.004750
v -0.517886 2.251087 1.004750
v -0.494239 2.316743 1.004750
v -0.465728 2.330301 1.004750
v -0.313987 2.196118 1.004750
v -0.209904 2.015363 1.004750
v -0.232068 1.891902 1.004750
v -0.333629 1.765788 1.004750
v -0.416497 1.766211 1.004750
v -0.468097 1.821476 1.004750
v -0.513148 1.938276 1.004750
v -0.528217 2.064787 0.936350
v -0.522952 2.216409 0.936351
v -0.503049 2.300836 0.936351
v -0.471052 2.333099 0.936350
v -0.409432 2.274659 0.936350
v -0.319394 2.201915 0.936350
v -0.212907 2.028313 0.936350
v -0.221727 1.917477 0.936351
v -0.316216 1.777894 0.936352
v -0.406286 1.760531 0.936350
v -0.464417 1.815549 0.936350
v -0.508631 1.920894 0.936351
vn 0.0000 0.0000 1.0000
vn -0.9279 -0.3728 0.0079
vn -0.0000 -0.0000 -1.0000
vn -0.9990 0.0347 -0.0290
vn 0.8652 0.4982 0.0563
vn -0.9967 0.0727 0.0370
vn -0.4284 0.9009 0.0702
vn 0.7759 -0.6248 0.0870
vn -0.9944 -0.0989 0.0362
vn -0.9724 0.2292 -0.0442
vn -0.0051 -0.9966 0.0820
vn -0.9400 0.3386 0.0423
vn 0.6611 0.7476 -0.0640
vn 0.9809 -0.1761 0.0824
vn 0.8522 0.5227 -0.0231
vn -0.7088 -0.7053 -0.0121
vn 0.6879 0.7254 -0.0239
vn 0.1878 -0.9743 -0.1246
vn 0.8252 -0.5586 -0.0841
vn 0.6284 0.7777 0.0163
vn -0.7082 0.7023 -0.0721
vn 0.9951 -0.0792 -0.0587
vn -0.9904 -0.1348 -0.0311
usemtl None
s off
f 2//1 4//1 3//1
f 2//1 5//1 4//1
f 1//1 5//1 2//1
f 1//1 6//1 5//1
f 11//1 6//1 1//1
f 11//1 7//1 6//1
f 10//1 7//1 11//1
f 10//1 8//1 7//1
f 9//1 8//1 10//1
f 23//2 22//2 10//2 11//2
f 14//3 15//3 16//3
f 13//3 14//3 16//3
f 13//3 16//3 17//3
f 12//3 13//3 17//3
f 12//3 17//3 18//3
f 23//3 12//3 18//3
f 23//3 18//3 19//3
f 22//3 23//3 19//3
f 22//3 19//3 20//3
f 21//3 22//3 20//3
f 1//4 13//4 12//4
f 6//5 18//5 5//5
f 2//6 13//6 1//6
f 4//7 15//7 3//7
f 8//8 20//8 7//8
f 1//9 12//9 11//9
f 2//10 14//10 13//10
f 9//11 21//11 8//11
f 3//12 14//12 2//12
f 5//13 16//13 4//13
f 7//14 19//14 6//14
f 5//15 18//15 17//15
f 22//16 21//16 9//16 10//16
f 4//17 16//17 15//17
f 8//18 21//18 20//18
f 7//19 20//19 19//19
f 5//20 17//20 16//20
f 3//21 15//21 14//21
f 6//22 19//22 18//22
f 11//23 12//23 23//23
o BezierCircle.005_BezierCircle.006
v 0.529044 2.098164 1.004750
v 0.517886 2.251087 1.004750
v 0.494239 2.316743 1.004750
v 0.465728 2.330301 1.004750
v 0.313987 2.196118 1.004750
v 0.209904 2.015363 1.004750
v 0.232068 1.891902 1.004750
v 0.333629 1.765788 1.004750
v 0.416497 1.766211 1.004750
v 0.468097 1.821476 1.004750
v 0.513148 1.938276 1.004750
v 0.528217 2.064787 0.936350
v 0.522952 2.216409 0.936351
v 0.503049 2.300836 0.936351
v 0.471052 2.333099 0.936350
v 0.409432 2.274659 0.936350
v 0.319394 2.201915 0.936350
v 0.212907 2.028313 0.936350
v 0.221727 1.917477 0.936351
v 0.316216 1.777894 0.936352
v 0.406286 1.760531 0.936350
v 0.464417 1.815549 0.936350
v 0.508631 1.920894 0.936351
vn -0.0000 0.0000 1.0000
vn 0.9279 -0.3728 0.0079
vn 0.0000 -0.0000 -1.0000
vn 0.9990 0.0347 -0.0290
vn -0.8652 0.4982 0.0563
vn 0.9967 0.0727 0.0370
vn 0.4284 0.9009 0.0702
vn -0.7759 -0.6248 0.0870
vn 0.9944 -0.0989 0.0362
vn 0.9724 0.2292 -0.0442
vn 0.0051 -0.9966 0.0820
vn 0.9400 0.3386 0.0423
vn -0.6611 0.7476 -0.0640
vn -0.9809 -0.1761 0.0824
vn -0.8522 0.5227 -0.0231
vn 0.7088 -0.7053 -0.0121
vn -0.6879 0.7254 -0.0239
vn -0.1878 -0.9743 -0.1246
vn -0.8252 -0.5586 -0.0841
vn -0.6284 0.7777 0.0163
vn 0.7082 0.7023 -0.0721
vn -0.9951 -0.0792 -0.0587
vn 0.9904 -0.1348 -0.0311
usemtl None
s off
f 25//24 26//24 27//24
f 25//24 27//24 28//24
f 24//24 25//24 28//24
f 24//24 28//24 29//24
f 34//24 24//24 29//24
f 34//24 29//24 30//24
f 33//24 34//24 30//24
f 33//24 30//24 31//24
f 32//24 33//24 31//24
f 46//25 34//25 33//25 45//25
f 37//26 39//26 38//26
f 36//26 39//26 37//26
f 36//26 40//26 39//26
f 35//26 40//26 36//26
f 35//26 41//26 40//26
f 46//26 41//26 35//26
f 46//26 42//26 41//26
f 45//26 42//26 46//26
f 45//26 43//26 42//26
f 44//26 43//26 45//26
f 24//27 35//27 36//27
f 29//28 28//28 41//28
f 25//29 24//29 36//29
f 27//30 26//30 38//30
f 31//31 30//31 43//31
f 24//32 34//32 35//32
f 25//33 36//33 37//33
f 32//34 31//34 44//34
f 26//35 25//35 37//35
f 28//36 27//36 39//36
f 30//37 29//37 42//37
f 28//38 40//38 41//38
f 45//39 33//39 32//39 44//39
f 27//40 38//40 39//40
f 31//41 43//41 44//41
f 30//42 42//42 43//42
f 28//43 39//43 40//43
f 26//44 37//44 38//44
f 29//45 41//45 42//45
f 34//46 46//46 35//46
