# Blender v2.79 (sub 0) OBJ File: 'ghost.blend'
# www.blender.org
mtllib ghost.mtl
o Icosphere_Icosphere.001
v -0.286589 3.094543 0.249491
v -0.043060 3.105883 -0.335682
v 0.011547 2.647180 0.844005
v -0.647650 2.506538 -0.712915
v -0.853816 2.341070 0.411167
v 0.127204 2.341070 0.939084
v 0.932432 2.341069 0.169212
v -0.844558 -0.324317 -0.269670
v -0.747295 -0.196061 -0.600671
v -0.523304 -0.327525 -0.786096
v -0.004506 -0.324319 -0.886554
v 0.300355 -0.189576 -0.862670
v 0.524754 -0.324319 -0.714585
v 0.841771 -0.324319 -0.278246
v 0.921797 -0.189005 0.008277
v 0.841771 -0.324319 0.278246
v 0.524754 -0.324319 0.714585
v 0.276966 -0.189010 0.879242
v -0.004506 -0.324319 0.886554
v -0.517454 -0.324319 0.719888
v -0.750637 -0.189018 0.535092
v -0.844558 -0.324317 0.269670
v -0.271450 -0.156839 -0.965867
v -0.225477 2.436263 -0.955613
v 0.763327 -0.154314 -0.551790
v 0.708893 2.403529 -0.591542
v 0.892907 2.409094 -0.280410
v 0.760668 -0.154312 0.555450
v 0.731746 2.564784 0.515733
v 0.542612 2.409093 0.762550
v -0.293241 -0.154324 0.895071
v -0.225809 2.403527 0.895244
v -0.557554 2.409094 0.751694
v -0.939638 -0.153185 0.002588
v -0.919992 2.404322 0.069669
v -0.889536 2.376816 -0.358239
v 0.180788 2.949802 -0.590337
v 0.465665 2.968809 -0.338322
v 0.719864 2.741560 -0.349658
v 0.465665 2.968809 0.338322
v -0.638351 2.916192 -0.035246
v -0.307787 3.113001 -0.065471
v 0.158934 2.947083 0.597216
v -0.177870 2.968811 0.547417
v -0.376859 2.741560 0.706003
v -0.571514 2.843749 -0.415225
v -0.800185 2.727758 -0.088047
v -0.239974 2.709286 -0.835436
v 0.059770 3.165508 0.112692
v -0.716119 2.725891 0.392719
v 0.361531 2.693736 0.748008
v 0.810189 2.725889 0.103204
v 0.365675 2.637369 -0.783390
v -0.621486 2.664652 -0.634308
v 0.000001 -0.052490 -0.002253
v -0.378277 3.019930 -0.345448
v 0.378505 3.094541 -0.033393
v 0.499457 2.376811 -0.797851
v 0.011056 2.208902 -1.008401
v -0.452486 2.824806 -0.560406
vn 0.3135 0.9194 0.2375
vn -0.9106 0.3373 0.2389
vn -0.0712 0.2712 0.9599
vn 0.8929 0.3352 0.3007
vn 0.6304 0.3618 -0.6868
vn 0.3227 0.2168 -0.9214
vn 0.3656 -0.8990 -0.2409
vn 0.0916 -0.8284 0.5527
vn -0.8274 0.0072 -0.5616
vn -0.6405 -0.0083 -0.7679
vn 0.5313 -0.8452 -0.0581
vn 0.3713 -0.8881 0.2711
vn -0.5664 -0.7869 0.2448
vn 0.2495 -0.8292 0.5002
vn -0.4972 -0.8669 -0.0354
vn -0.1356 -0.8807 0.4538
vn -0.3977 -0.8261 -0.3993
vn 0.9962 0.0014 -0.0874
vn -0.3984 -0.8292 0.3920
vn -0.1237 -0.8719 -0.4737
vn -0.4730 -0.8810 0.0122
vn 0.2571 -0.8261 -0.5015
vn 0.3909 0.0014 0.9204
vn -0.4960 -0.8296 -0.2562
vn 0.4122 -0.8718 -0.2645
vn -0.1585 -0.8813 -0.4453
vn 0.5571 -0.8258 0.0883
vn -0.7546 0.0014 0.6562
vn 0.0855 -0.8248 -0.5589
vn 0.3802 -0.8715 0.3097
vn -0.4968 0.0122 -0.8678
vn 0.7015 0.0039 -0.7126
vn 0.8698 0.0165 0.4931
vn -0.1227 0.0032 0.9924
vn -0.9816 0.0025 0.1907
vn -0.4884 0.7269 -0.4828
vn 0.1378 0.5784 -0.8041
vn 0.4366 0.6916 0.5753
vn 0.2445 0.9138 -0.3243
vn -0.5856 0.7748 0.2381
vn -0.7701 0.6230 0.1371
vn 0.2384 0.9027 0.3582
vn 0.1429 0.9763 -0.1626
vn -0.9530 -0.0258 -0.3020
vn -0.0873 0.9899 -0.1116
vn -0.2333 0.9388 -0.2533
vn -0.8982 0.4101 0.1586
vn 0.2021 0.3593 0.9111
vn -0.2189 0.4004 0.8898
vn 0.6458 0.4304 -0.6307
vn -0.0142 0.9139 0.4057
vn -0.4563 0.4555 -0.7644
vn -0.7491 0.2964 0.5925
vn 0.3406 0.2628 0.9027
vn 0.9543 0.2964 -0.0390
vn -0.8280 0.3535 -0.4354
vn 0.1747 -0.0484 -0.9834
vn -0.1697 -0.8890 0.4253
vn -0.5790 -0.0044 -0.8153
vn 0.5584 -0.0203 -0.8293
vn 0.3981 -0.0077 -0.9173
vn 0.9618 -0.0182 -0.2733
vn 0.9587 -0.0210 0.2836
vn 0.5571 -0.0182 0.8303
vn 0.0265 -0.0210 0.9994
vn -0.6175 -0.0182 0.7864
vn -0.9426 -0.0210 0.3332
vn -0.1521 0.8025 -0.5769
vn -0.2108 0.0076 -0.9775
vn -0.4237 0.3460 -0.8371
vn 0.1259 0.4053 -0.9055
vn 0.1443 0.3638 -0.9202
vn 0.8606 0.0104 -0.5092
vn 0.8125 0.3216 -0.4863
vn 0.8887 0.4287 -0.1624
vn 0.7883 0.0174 0.6150
vn 0.5830 0.4068 0.7033
vn -0.3970 0.0104 0.9178
vn -0.3715 0.3216 0.8710
vn -0.6235 0.4287 0.6538
vn -0.9974 0.0095 -0.0716
vn -0.9473 0.3083 -0.0872
vn -0.8270 0.4597 -0.3236
vn -0.3851 0.7264 -0.5692
vn 0.5060 0.6334 -0.5854
vn 0.6633 0.7402 -0.1103
vn -0.7248 0.6278 -0.2840
vn 0.6237 0.7731 0.1152
vn 0.6911 0.6190 0.3731
vn 0.5618 0.6136 0.5548
vn -0.6013 0.7587 -0.2504
vn -0.0933 0.6447 0.7587
vn -0.5040 0.8596 0.0843
vn -0.5159 0.8434 -0.1505
vn -0.1739 0.9823 0.0693
vn -0.4718 0.7402 0.4791
vn 0.1406 0.5870 0.7973
usemtl None
s off
f 40//1 57//1 49//1
f 35//2 5//2 50//2
f 32//3 6//3 3//3
f 29//4 7//4 52//4
f 26//5 58//5 53//5
f 59//6 53//6 58//6
f 8//7 9//7 55//7
f 8//8 55//8 34//8
f 9//9 36//9 4//9
f 9//10 4//10 10//10
f 10//11 23//11 55//11
f 11//12 12//12 55//12
f 11//13 55//13 23//13
f 13//14 25//14 55//14
f 13//15 55//15 12//15
f 14//16 15//16 55//16
f 14//17 55//17 25//17
f 15//18 27//18 7//18
f 16//19 28//19 55//19
f 16//20 55//20 15//20
f 17//21 18//21 55//21
f 17//22 55//22 28//22
f 18//23 30//23 6//23
f 19//24 31//24 55//24
f 19//25 55//25 18//25
f 20//26 21//26 55//26
f 20//27 55//27 31//27
f 21//28 33//28 5//28
f 22//29 34//29 55//29
f 22//30 55//30 21//30
f 23//31 4//31 24//31
f 25//32 58//32 26//32
f 28//33 7//33 29//33
f 31//34 6//34 32//34
f 34//35 5//35 35//35
f 46//36 56//36 54//36
f 37//37 53//37 48//37
f 40//38 43//38 51//38
f 2//39 57//39 38//39 37//39
f 50//40 1//40 41//40
f 41//41 47//41 50//41
f 49//42 43//42 40//42
f 57//43 2//43 49//43
f 9//44 8//44 34//44 36//44
f 2//45 42//45 49//45
f 2//46 56//46 42//46
f 50//47 47//47 35//47
f 3//48 6//48 51//48
f 3//49 45//49 32//49
f 53//50 39//50 26//50
f 49//51 1//51 44//51 43//51
f 54//52 48//52 4//52
f 5//53 33//53 50//53
f 6//54 30//54 51//54
f 7//55 27//55 52//55
f 4//56 36//56 54//56
f 12//57 11//57 23//57 59//57
f 9//58 10//58 55//58
f 10//59 4//59 23//59
f 25//60 13//60 12//60 58//60
f 12//61 59//61 58//61
f 15//62 14//62 25//62 27//62
f 28//63 16//63 15//63 7//63
f 18//64 17//64 28//64 30//64
f 31//65 19//65 18//65 6//65
f 21//66 20//66 31//66 33//66
f 34//67 22//67 21//67 5//67
f 56//68 2//68 37//68 48//68
f 23//69 24//69 59//69
f 4//70 48//70 24//70
f 53//71 24//71 48//71
f 53//72 59//72 24//72
f 25//73 26//73 27//73
f 26//74 39//74 27//74
f 27//75 39//75 52//75
f 28//76 29//76 30//76
f 30//77 29//77 51//77
f 31//78 32//78 33//78
f 32//79 45//79 33//79
f 33//80 45//80 50//80
f 34//81 35//81 36//81
f 35//82 47//82 36//82
f 36//83 47//83 54//83
f 56//84 48//84 54//84
f 53//85 37//85 38//85 39//85
f 52//86 39//86 38//86 57//86
f 47//87 41//87 46//87 54//87
f 52//88 57//88 40//88
f 40//89 29//89 52//89
f 51//90 29//90 40//90
f 41//91 56//91 46//91
f 3//92 43//92 44//92 45//92
f 41//93 1//93 42//93
f 42//94 56//94 41//94
f 42//95 1//95 49//95
f 50//96 45//96 44//96 1//96
f 43//97 3//97 51//97
l 46 60
