# Blender v2.79 (sub 0) OBJ File: 'polysphere.blend'
# www.blender.org
mtllib polysphere.mtl
o Icosphere
v -0.235241 -0.700735 -0.724007
v 0.003618 0.523793 0.892291
v -0.847501 0.523790 0.279175
v -0.527408 0.523791 -0.719748
v 0.521546 0.523791 -0.724008
v 0.849739 0.523791 0.272290
v 0.088470 0.994276 -0.272289
v -0.088470 -0.994276 0.272289
v -0.003618 -0.523793 0.892291
v 0.847501 -0.523790 0.279175
v 0.418908 -0.957649 0.000000
v -0.849739 -0.523791 0.272290
v -0.704983 -0.731402 -0.246228
v 0.527408 -0.523791 -0.719748
v 1.043889 0.053589 -0.000000
v 0.322581 0.053590 0.992798
v -0.587786 0.000000 0.809017
v -0.587786 0.000000 -0.809017
v -1.043889 -0.053590 -0.000000
v 0.322581 0.053590 -0.992798
v 0.338902 0.957651 0.246226
v -0.418907 0.957649 -0.000000
vn -0.1933 -0.9485 -0.2510
vn -0.0764 -0.9594 -0.2714
vn -0.6401 -0.4015 -0.6551
vn 0.8090 0.0090 0.5878
vn -0.1941 -0.0608 0.9791
vn -0.1818 -0.2080 -0.9611
vn 0.8090 0.0090 -0.5878
vn 0.4741 0.5971 0.6470
vn -0.3933 0.7398 0.5459
vn -0.7639 0.5971 -0.2448
vn -0.0029 0.6912 -0.7227
vn 0.6391 0.7398 -0.2105
vn 0.5941 0.7701 -0.2325
vn -0.3057 0.8351 -0.4573
vn -0.0271 0.9961 0.0835
vn -0.1598 0.8559 0.4918
vn 0.8240 0.4974 -0.2714
vn 0.8090 -0.0063 -0.5878
vn -0.0035 0.4974 -0.8675
vn -0.2050 0.1874 -0.9607
vn -0.8614 0.4264 -0.2760
vn -0.5162 0.4689 0.7166
vn -0.2014 0.0721 0.9768
vn 0.5128 0.4974 0.6998
vn 0.8090 -0.0063 0.5878
vn 0.0972 -0.3971 -0.9126
vn -0.8619 0.1801 -0.4740
vn -0.8383 -0.2417 -0.4886
vn -0.9031 -0.4212 -0.0835
vn -0.8712 0.0608 0.4871
vn -0.8668 -0.0721 0.4934
vn -0.5220 -0.4689 0.7124
vn 0.5287 -0.4264 0.7339
vn 0.8614 -0.4264 -0.2760
vn 0.2004 -0.8521 -0.4834
vn -0.5161 -0.8351 0.1903
vn -0.4272 -0.6912 0.5829
vn 0.7639 -0.5971 -0.2448
vn 0.3439 -0.7701 0.5373
vn 0.3933 -0.7398 0.5459
usemtl None
s off
f 8//1 13//1 1//1
f 8//2 1//2 11//2
f 1//3 13//3 18//3
f 10//4 15//4 16//4
f 9//5 16//5 17//5
f 1//6 18//6 20//6
f 14//7 20//7 15//7
f 2//8 6//8 21//8
f 3//9 2//9 22//9
f 4//10 3//10 22//10
f 5//11 4//11 7//11
f 6//12 5//12 21//12
f 21//13 5//13 7//13
f 7//14 4//14 22//14
f 22//15 21//15 7//15
f 22//16 2//16 21//16
f 15//17 5//17 6//17
f 15//18 20//18 5//18
f 20//19 4//19 5//19
f 20//20 18//20 4//20
f 19//21 3//21 4//21
f 17//22 2//22 3//22
f 17//23 16//23 2//23
f 16//24 6//24 2//24
f 16//25 15//25 6//25
f 14//26 1//26 20//26
f 18//27 19//27 4//27
f 18//28 13//28 19//28
f 13//29 12//29 19//29
f 19//30 17//30 3//30
f 19//31 12//31 17//31
f 12//32 9//32 17//32
f 9//33 10//33 16//33
f 10//34 14//34 15//34
f 11//35 1//35 14//35
f 13//36 8//36 12//36
f 8//37 9//37 12//37
f 10//38 11//38 14//38
f 8//39 11//39 9//39
f 11//40 10//40 9//40
