# Blender v2.79 (sub 0) OBJ File: 'ghost.blend'
# www.blender.org
mtllib round-eyes.mtl
o BezierCircle.002
v -0.504472 2.221908 1.004750
v -0.438670 2.336740 1.004750
v -0.349841 2.355919 1.004750
v -0.269159 2.273607 1.004750
v -0.224055 2.077855 1.004750
v -0.265413 1.843198 1.004750
v -0.374084 1.752347 1.004750
v -0.478681 1.826149 1.004750
v -0.530269 2.037345 1.004750
v -0.528645 2.043110 0.936350
v -0.512607 2.192469 0.936350
v -0.469317 2.296776 0.936352
v -0.404483 2.355919 0.936350
v -0.327889 2.343800 0.936350
v -0.256058 2.243820 0.936350
v -0.225679 2.072090 0.936350
v -0.241717 1.922731 0.936350
v -0.285007 1.818424 0.936351
v -0.349841 1.759281 0.936350
v -0.448052 1.784995 0.936350
v -0.508687 1.910011 0.936350
vn 0.0000 0.0000 1.0000
vn -0.0000 -0.0000 -1.0000
vn -0.9887 0.1382 0.0581
vn 0.8082 0.5807 -0.0981
vn 0.6343 -0.7588 0.1479
vn -0.8635 0.4948 0.0978
vn 0.7102 0.6962 0.1046
vn 0.9164 -0.3803 -0.1248
vn 0.9754 -0.1719 0.1380
vn -0.5614 -0.7957 0.2273
vn -0.9222 0.3827 -0.0551
vn -0.2081 0.9639 0.1663
vn 0.9942 -0.1068 -0.0146
vn -0.8910 -0.4322 -0.1390
vn 0.6721 -0.7367 0.0743
vn 0.1551 0.9801 -0.1239
vn 0.9840 0.1741 -0.0380
vn -0.9627 -0.2352 0.1340
vn -0.9942 0.1068 -0.0146
vn -0.2489 -0.9508 -0.1846
vn -0.6683 0.7327 -0.1286
vn 0.9706 0.2236 0.0885
vn -0.9883 -0.1482 -0.0360
usemtl None
s off
f 2//1 4//1 3//1
f 1//1 4//1 2//1
f 1//1 5//1 4//1
f 9//1 5//1 1//1
f 9//1 6//1 5//1
f 8//1 6//1 9//1
f 8//1 7//1 6//1
f 12//2 13//2 14//2
f 12//2 14//2 15//2
f 11//2 12//2 15//2
f 11//2 15//2 16//2
f 10//2 11//2 16//2
f 10//2 16//2 17//2
f 21//2 10//2 17//2
f 21//2 17//2 18//2
f 20//2 21//2 18//2
f 20//2 18//2 19//2
f 1//3 11//3 9//3
f 4//4 15//4 14//4
f 7//5 19//5 6//5
f 2//6 12//6 1//6
f 4//7 14//7 3//7
f 6//8 18//8 17//8
f 6//9 17//9 5//9
f 8//10 20//10 7//10
f 1//11 12//11 11//11
f 3//12 13//12 2//12
f 5//13 17//13 16//13
f 8//14 21//14 20//14
f 6//15 19//15 18//15
f 3//16 14//16 13//16
f 5//17 16//17 15//17
f 8//18 9//18 21//18
f 9//19 11//19 10//19
f 7//20 20//20 19//20
f 2//21 13//21 12//21
f 4//22 5//22 15//22
f 9//23 10//23 21//23
o BezierCircle
v 0.227162 2.057605 1.004750
v 0.237592 2.180620 1.004750
v 0.292811 2.308722 1.004750
v 0.380240 2.362858 1.004750
v 0.461513 2.308722 1.004750
v 0.516732 2.180620 1.004750
v 0.527162 2.057605 1.004750
v 0.516732 1.934589 1.004750
v 0.461513 1.806488 1.004750
v 0.380240 1.752351 1.004750
v 0.292811 1.806488 1.004750
v 0.237592 1.934589 1.004750
v 0.227162 2.057605 0.936350
v 0.232320 2.142018 0.936350
v 0.263544 2.257235 0.936350
v 0.334342 2.350514 0.936350
v 0.426435 2.343804 0.936350
v 0.510947 2.212113 0.936350
v 0.527162 2.057605 0.936350
v 0.510947 1.903096 0.936350
v 0.426435 1.771405 0.936350
v 0.334342 1.764695 0.936350
v 0.263544 1.857975 0.936350
v 0.232320 1.973192 0.936350
vn 0.0000 0.0000 1.0000
vn -0.0000 -0.0000 -1.0000
vn 0.9952 0.0956 -0.0201
vn -0.9142 -0.3941 0.0945
vn -0.5162 0.8337 0.1959
vn 0.8317 0.5338 -0.1528
vn 0.8317 -0.5338 -0.1528
vn 0.5488 0.8239 0.1411
vn -0.9626 -0.2609 -0.0730
vn 0.5488 -0.8239 0.1411
vn 0.9133 0.3937 0.1040
vn -0.7914 0.6007 -0.1135
vn -0.5162 -0.8337 0.1960
vn -0.9970 -0.0749 0.0173
vn 0.0708 0.9722 -0.2230
vn -0.9626 0.2609 -0.0730
vn 0.0708 -0.9722 -0.2230
vn 0.9952 -0.0956 -0.0201
vn -0.9970 0.0749 0.0173
vn 0.9133 -0.3937 0.1040
vn -0.9142 0.3941 0.0945
vn -0.7914 -0.6007 -0.1135
usemtl None
s off
f 24//24 26//24 25//24
f 24//24 27//24 26//24
f 23//24 27//24 24//24
f 22//24 27//24 23//24
f 22//24 28//24 27//24
f 33//24 28//24 22//24
f 33//24 29//24 28//24
f 33//24 30//24 29//24
f 32//24 30//24 33//24
f 32//24 31//24 30//24
f 37//25 38//25 39//25
f 36//25 37//25 39//25
f 39//26 27//26 28//26 40//26
f 35//25 36//25 39//25
f 34//25 35//25 39//25
f 34//25 39//25 40//25
f 45//25 34//25 40//25
f 45//25 40//25 41//25
f 44//25 45//25 41//25
f 44//25 41//25 42//25
f 43//25 44//25 42//25
f 33//27 44//27 32//27
f 25//28 37//28 24//28
f 26//29 39//29 38//29
f 30//30 42//30 41//30
f 26//31 38//31 25//31
f 33//32 45//32 44//32
f 31//33 42//33 30//33
f 27//34 39//34 26//34
f 24//35 37//35 36//35
f 32//36 43//36 31//36
f 45//37 33//37 22//37 34//37
f 25//38 38//38 37//38
f 23//39 36//39 35//39
f 31//40 43//40 42//40
f 40//41 28//41 29//41 41//41
f 34//42 22//42 23//42 35//42
f 29//43 30//43 41//43
f 23//44 24//44 36//44
f 32//45 44//45 43//45
