# Blender v2.79 (sub 0) OBJ File: 'scarf.blend'
# www.blender.org
mtllib scarf.mtl
o Cube_Cube.001
v 0.683295 -0.908772 1.663101
v 0.436176 -0.844068 1.737378
v 0.276967 -0.012425 0.976472
v 0.294185 0.052279 1.050748
v 1.145815 -0.832279 1.489251
v 1.303363 -0.767575 1.563528
v 0.739487 0.064068 0.802622
v 0.756705 0.128772 0.876899
vn -0.6468 -0.5785 -0.4970
vn -0.3386 0.7470 -0.5722
vn 0.7043 -0.1561 -0.6925
vn 0.2621 -0.6439 0.7189
vn -0.1722 -0.6470 -0.7428
vn 0.1267 0.6334 0.7634
usemtl None
s off
f 1//1 2//1 4//1 3//1
f 3//2 4//2 8//2 7//2
f 7//3 8//3 6//3 5//3
f 5//4 6//4 2//4 1//4
f 3//5 7//5 5//5 1//5
f 8//6 4//6 2//6 6//6
o NurbsPath.001
v -1.999253 -0.123085 1.166522
v -1.914146 -0.123085 1.166522
v -1.829040 -0.123085 1.166522
v -1.743934 -0.123085 1.166522
v -1.658827 -0.123085 1.166522
v -1.573721 -0.123085 1.166522
v -1.488615 -0.123085 1.166522
v -1.403508 -0.123085 1.166522
v -1.318402 -0.123085 1.166522
v -1.233295 -0.123085 1.166522
v -1.148189 -0.123085 1.166522
v -1.063083 -0.123085 1.166522
v -0.977976 -0.123085 1.166522
v -0.892870 -0.123085 1.166522
v -0.807764 -0.123085 1.166522
v -0.722657 -0.123085 1.166522
v -0.637551 -0.123085 1.166522
v -0.552445 -0.123085 1.166522
v -0.467338 -0.123085 1.166522
v -0.382232 -0.123085 1.166522
v -0.297125 -0.123085 1.166522
v -0.212019 -0.123085 1.166522
v -0.126913 -0.123085 1.166522
v -0.041806 -0.123085 1.166522
v 0.043300 -0.123085 1.166522
v 0.128407 -0.123085 1.166522
v 0.213513 -0.123085 1.166522
v 0.298619 -0.123085 1.166522
v 0.383726 -0.123085 1.166522
v 0.468832 -0.123085 1.166522
v 0.553939 -0.123085 1.166522
v 0.639045 -0.123085 1.166522
v 0.724151 -0.123085 1.166522
v 0.809258 -0.123085 1.166522
v 0.894364 -0.123085 1.166522
v 0.979470 -0.123085 1.166522
v 1.064577 -0.123085 1.166522
v 1.149683 -0.123085 1.166522
v 1.234790 -0.123085 1.166522
v 1.319896 -0.123085 1.166522
v 1.405002 -0.123085 1.166522
v 1.490109 -0.123085 1.166522
v 1.575215 -0.123085 1.166522
v 1.660321 -0.123085 1.166522
v 1.745428 -0.123085 1.166522
v 1.830534 -0.123085 1.166522
v 1.915641 -0.123085 1.166522
v 2.000747 -0.123085 1.166522
l 9 10
l 10 11
l 11 12
l 12 13
l 13 14
l 14 15
l 15 16
l 16 17
l 17 18
l 18 19
l 19 20
l 20 21
l 21 22
l 22 23
l 23 24
l 24 25
l 25 26
l 26 27
l 27 28
l 28 29
l 29 30
l 30 31
l 31 32
l 32 33
l 33 34
l 34 35
l 35 36
l 36 37
l 37 38
l 38 39
l 39 40
l 40 41
l 41 42
l 42 43
l 43 44
l 44 45
l 45 46
l 46 47
l 47 48
l 48 49
l 49 50
l 50 51
l 51 52
l 52 53
l 53 54
l 54 55
l 55 56
o Torus
v 1.193807 0.180707 -0.060359
v 0.749905 0.064687 -0.177977
v 0.805339 -0.179116 -0.221705
v 1.125617 -0.247945 -0.010052
v 0.804550 0.248973 -0.510282
v 0.772261 -0.248770 -0.747780
v 1.039978 -0.085433 -0.729508
v 0.897665 0.190315 -0.809288
v 0.461383 0.069663 -0.619219
v 0.474205 -0.180384 -0.689869
v -0.236487 0.241457 -1.120370
v 0.318241 -0.175484 -1.165428
v 0.177595 0.037200 -1.275601
v 0.127533 0.180356 -0.832309
v -0.035404 -0.063705 -0.756592
v -0.368837 -0.251059 -0.928364
v -0.374985 -0.195617 -1.125515
v -0.696059 0.249982 -0.699859
v -0.540693 -0.179948 -0.648580
v -0.861904 0.140296 -0.920396
v -0.497269 0.077204 -0.591437
v -0.685356 -0.067325 -0.342302
v -1.054218 -0.072600 -0.710470
v -0.810591 0.181796 -0.210165
v -1.125437 -0.239074 -0.275106
v -1.254491 0.069365 -0.086019
v -1.086124 0.248595 0.144759
v -0.838881 -0.192008 0.245055
v -0.754029 -0.067672 0.098061
v -0.730062 0.212511 0.562543
v -1.064305 -0.237871 0.443860
v -1.164652 0.066321 0.494154
v -0.686085 0.203849 0.991084
v -0.630300 0.066546 0.438154
v -0.739314 -0.073410 1.015938
v -0.163200 -0.210867 0.912519
v -0.367941 -0.248431 1.027653
v 0.070246 0.248623 0.981302
v -0.167201 0.001665 0.730317
v -0.223237 -0.057361 1.243720
v 0.133668 0.185089 1.186900
v 0.539638 0.071773 1.147789
v 0.355852 0.001822 0.652970
v 0.677208 -0.248838 0.846508
v 0.563383 -0.183722 1.091568
v 0.715470 -0.179392 0.442000
v 0.745895 0.143401 0.264352
v 1.050688 0.074853 0.711121
v 0.905573 0.247457 0.646354
v 1.274613 -0.067471 0.157193
vn -0.6366 0.7691 0.0566
vn -0.2978 -0.9438 0.1437
vn 0.8411 -0.4975 -0.2125
vn 0.2822 0.9542 -0.0993
vn -0.8056 -0.2771 0.5237
vn 0.5169 -0.8197 -0.2467
vn -0.7995 -0.2009 0.5660
vn 0.5381 0.0341 -0.8422
vn 0.0895 0.9823 -0.1648
vn -0.3599 0.7099 0.6054
vn 0.4458 -0.6634 -0.6010
vn -0.1866 -0.2760 0.9429
vn -0.0849 -0.8329 0.5468
vn 0.0351 -0.9771 -0.2097
vn 0.2855 -0.8722 0.3971
vn -0.3152 0.0796 -0.9457
vn 0.3512 0.0555 0.9347
vn 0.2572 -0.2508 0.9332
vn -0.5365 -0.2949 -0.7906
vn 0.8369 -0.2496 0.4871
vn -0.3865 -0.8386 -0.3839
vn 0.5584 0.7938 0.2411
vn 0.3589 -0.8279 0.4309
vn 0.7793 0.0609 0.6237
vn 0.9268 0.2234 -0.3019
vn -0.8408 0.4032 -0.3613
vn -0.3746 0.9112 -0.1715
vn 0.1167 -0.9928 0.0255
vn 0.5025 0.8325 0.2334
vn -0.9386 -0.2419 -0.2460
vn -0.7992 0.5875 0.1268
vn 0.1872 -0.9822 -0.0143
vn 0.7767 0.6209 -0.1056
vn 0.9469 -0.1418 -0.2885
vn -0.9327 -0.3313 0.1427
vn 0.7956 -0.6036 -0.0513
vn -0.7328 0.1990 0.6507
vn -0.7710 -0.3430 0.5366
vn 0.5942 -0.5170 -0.6161
vn -0.3918 -0.8009 0.4528
vn 0.4312 0.7376 -0.5197
vn -0.4028 0.1581 0.9015
vn -0.3068 -0.6016 0.7375
vn 0.0069 -0.7514 0.6598
vn 0.0477 -0.9597 0.2771
vn -0.0581 -0.9830 -0.1743
vn -0.0896 0.9698 -0.2267
vn 0.4977 0.6386 0.5869
vn 0.6606 -0.6183 0.4259
vn 0.8524 0.4730 0.2230
vn 0.7033 0.6750 0.2231
vn -0.9964 0.0810 -0.0235
vn -0.9715 -0.1973 -0.1316
vn 0.1898 0.9817 -0.0153
vn -0.9772 0.2073 -0.0457
vn 0.0969 -0.9868 -0.1295
vn -0.1953 -0.9706 0.1408
vn -0.5186 0.7811 0.3479
vn -0.4334 0.3169 0.8436
vn 0.5232 -0.0928 -0.8471
vn 0.1894 0.8080 -0.5579
vn -0.3515 0.4834 0.8018
vn -0.2128 -0.4270 0.8789
vn 0.0123 -0.9625 -0.2710
vn -0.0366 -0.4786 -0.8773
vn 0.0978 0.9914 0.0867
vn 0.1734 0.6589 0.7320
vn -0.3094 0.1269 -0.9424
vn -0.2402 0.9290 -0.2814
vn -0.2361 -0.9373 -0.2562
vn -0.5713 0.7957 -0.2012
vn 0.8955 0.3257 0.3032
vn 0.8864 -0.4419 0.1379
vn 0.9126 0.3831 0.1426
vn 0.1660 0.9845 -0.0564
vn -0.9020 -0.4248 0.0774
vn -0.5332 0.7932 0.2940
vn 0.6251 -0.6929 0.3594
vn -0.0579 0.9951 0.0800
vn 0.1571 -0.9634 -0.2171
vn 0.5428 0.1755 -0.8213
vn 0.4025 0.4328 -0.8066
vn -0.1928 0.4839 0.8536
vn -0.0522 0.9495 0.3095
vn 0.1137 0.0650 0.9914
vn -0.1112 -0.6480 -0.7535
vn 0.1553 -0.1985 0.9677
vn 0.1069 0.9588 0.2633
vn -0.0964 0.7536 -0.6503
vn -0.0742 -0.9016 -0.4261
vn 0.2777 0.8252 0.4918
vn -0.4727 0.0832 -0.8773
vn 0.6463 -0.1062 0.7557
vn -0.7187 0.0862 -0.6900
vn -0.5978 -0.3425 -0.7248
vn -0.3629 -0.9121 -0.1909
vn -0.1932 -0.9808 -0.0266
usemtl None
s off
f 61//7 103//7 105//7
f 59//8 62//8 60//8
f 60//9 63//9 106//9
f 64//10 61//10 57//10
f 65//11 59//11 58//11
f 62//12 63//12 60//12
f 65//13 66//13 59//13
f 69//14 64//14 63//14
f 64//15 67//15 61//15
f 67//16 70//16 61//16
f 68//17 63//17 62//17
f 65//18 71//18 66//18
f 66//19 72//19 62//19
f 72//20 68//20 62//20
f 75//21 72//21 71//21
f 76//22 67//22 69//22
f 77//23 71//23 70//23
f 77//24 75//24 71//24
f 79//25 76//25 73//25
f 78//26 75//26 77//26
f 81//27 79//27 73//27
f 80//28 77//28 74//28
f 75//29 81//29 72//29
f 80//30 78//30 77//30
f 64//31 57//31 106//31 63//31
f 79//32 82//32 76//32
f 83//33 74//33 76//33
f 84//34 81//34 75//34
f 83//35 80//35 74//35
f 81//36 82//36 79//36
f 88//37 83//37 82//37
f 84//38 87//38 81//38
f 86//39 90//39 80//39
f 90//40 85//40 80//40
f 87//41 88//41 82//41
f 90//42 84//42 85//42
f 91//43 89//43 88//43
f 91//44 88//44 87//44
f 95//45 92//45 84//45
f 93//46 91//46 87//46
f 86//47 95//47 90//47
f 96//48 89//48 91//48
f 93//49 96//49 91//49
f 101//50 96//50 93//50
f 93//51 100//51 101//51
f 102//52 100//52 92//52
f 105//53 103//53 94//53
f 104//54 105//54 98//54
f 106//55 104//55 101//55
f 106//56 57//56 104//56
f 104//57 57//57 105//57
f 58//58 102//58 103//58
f 58//59 59//59 102//59
f 57//60 61//60 105//60
f 103//61 61//61 58//61
f 93//62 87//62 84//62 92//62
f 59//63 66//63 62//63
f 61//64 65//64 58//64
f 61//65 70//65 65//65
f 68//66 69//66 63//66
f 69//67 67//67 64//67
f 70//68 71//68 65//68
f 71//69 72//69 66//69
f 72//70 73//70 68//70
f 68//71 73//71 69//71
f 67//72 74//72 70//72
f 74//73 77//73 70//73
f 73//74 76//74 69//74
f 67//75 76//75 74//75
f 72//76 81//76 73//76
f 82//77 83//77 76//77
f 78//78 84//78 75//78
f 78//79 85//79 84//79
f 80//80 85//80 78//80
f 83//81 86//81 80//81
f 81//82 87//82 82//82
f 88//83 89//83 83//83
f 106//84 101//84 100//84 60//84
f 89//85 94//85 83//85
f 83//86 94//86 86//86
f 90//87 95//87 84//87
f 86//88 94//88 95//88
f 96//89 97//89 89//89
f 89//90 97//90 94//90
f 96//91 98//91 97//91
f 95//92 99//92 92//92
f 101//93 98//93 96//93
f 97//94 105//94 94//94
f 94//95 99//95 95//95
f 92//96 100//96 93//96
f 98//97 105//97 97//97
f 99//98 102//98 92//98
f 101//99 104//99 98//99
f 94//100 103//100 99//100
f 103//101 102//101 99//101
f 102//102 60//102 100//102
f 102//103 59//103 60//103
